<?xml version="1.0" standalone="no"?>
<!DOCTYPE svg PUBLIC "-//W3C//DTD SVG 20010904//EN"
 "http://www.w3.org/TR/2001/REC-SVG-20010904/DTD/svg10.dtd">
<svg version="1.0" xmlns="http://www.w3.org/2000/svg"
 width="900.000000pt" height="500.000000pt" viewBox="0 0 900.000000 500.000000"
 preserveAspectRatio="xMidYMid meet">

<g transform="translate(0.000000,500.000000) scale(0.100000,-0.100000)"
fill="white" stroke="none">
<path d="M4885 3583 c-179 -11 -329 -49 -470 -120 -116 -58 -204 -123 -297
-221 -214 -224 -331 -515 -344 -857 -18 -437 148 -741 481 -882 240 -102 635
-104 835 -5 82 40 103 83 150 293 21 96 37 175 35 177 -2 2 -19 -7 -37 -21
-108 -81 -259 -127 -417 -127 -123 0 -198 16 -283 62 -255 136 -318 533 -142
892 98 198 246 330 426 383 189 54 487 10 640 -95 l44 -30 29 101 c41 147 43
196 12 249 -44 75 -115 115 -280 158 -129 34 -271 50 -382 43z"/>
<path d="M2518 3540 c-268 -26 -310 -33 -319 -54 -12 -30 -356 -1560 -365
-1623 -8 -62 10 -172 36 -223 44 -86 112 -129 253 -163 82 -19 120 -22 352
-22 286 0 360 9 529 66 181 60 316 153 399 275 203 297 92 676 -221 755 l-63
16 66 18 c173 46 334 164 395 289 84 170 53 354 -81 481 -96 92 -256 157 -454
184 -84 12 -406 12 -527 1z m445 -344 c125 -29 184 -104 174 -219 -9 -101 -84
-183 -209 -227 -51 -18 -92 -23 -216 -27 -167 -6 -182 -2 -182 47 0 16 20 116
45 223 25 108 45 198 45 200 0 19 265 21 343 3z m-130 -835 c117 -46 170 -119
170 -236 1 -56 -4 -80 -25 -121 -70 -134 -211 -197 -474 -210 l-132 -7 -26 26
c-14 14 -26 33 -26 41 0 12 70 323 115 515 l6 23 167 -4 c143 -4 175 -8 225
-27z"/>
<path d="M6165 3533 c-71 -8 -270 -35 -272 -37 -2 -2 -424 -1899 -448 -2013
l-7 -33 177 0 c174 0 178 1 227 27 54 30 95 81 121 153 9 25 40 148 67 275 28
126 52 230 53 231 1 1 54 -2 117 -7 210 -16 432 18 602 93 300 130 499 397
515 688 20 361 -183 566 -612 619 -81 10 -466 13 -540 4z m543 -358 c113 -34
168 -120 166 -260 -1 -142 -66 -257 -191 -342 -84 -56 -146 -74 -284 -80 -132
-6 -173 6 -185 54 -6 24 103 555 127 620 7 18 18 23 61 26 95 8 252 -1 306
-18z"/>
<path d="M780 3401 c-90 -28 -198 -112 -265 -206 -44 -62 -92 -152 -84 -158 2
-2 49 -28 104 -57 178 -95 275 -163 406 -287 38 -36 71 -64 73 -62 9 9 46 135
57 192 17 89 15 269 -4 344 -48 185 -157 273 -287 234z"/>
<path d="M7910 3401 c-101 -31 -236 -155 -309 -284 -24 -43 -42 -79 -40 -81 2
-1 58 -31 124 -65 148 -77 252 -151 368 -260 98 -94 96 -93 122 -7 88 292 36
603 -115 683 -44 23 -101 29 -150 14z"/>
</g>
</svg>
