<?xml version="1.0" standalone="no"?>
<!DOCTYPE svg PUBLIC "-//W3C//DTD SVG 20010904//EN"
 "http://www.w3.org/TR/2001/REC-SVG-20010904/DTD/svg10.dtd">
<svg version="1.0" xmlns="http://www.w3.org/2000/svg"
 width="781.000000pt" height="798.000000pt" viewBox="0 0 781.000000 798.000000"
 preserveAspectRatio="xMidYMid meet">

<g transform="translate(0.000000,798.000000) scale(0.100000,-0.100000)"
fill="white" stroke="none">
<path d="M3108 6910 c-165 -30 -321 -111 -433 -224 -100 -101 -172 -231 -206
-372 -30 -122 -30 -294 0 -419 29 -121 112 -289 194 -390 36 -44 327 -339 647
-655 565 -558 584 -575 621 -575 37 0 55 17 634 595 328 327 619 624 646 660
62 81 141 241 169 340 27 96 37 281 21 375 -70 401 -393 675 -795 675 -219 0
-405 -82 -591 -261 l-85 -82 -85 82 c-181 174 -350 250 -570 256 -66 2 -141 0
-167 -5z m315 -229 c128 -45 176 -79 335 -238 84 -84 160 -153 169 -153 9 0
84 69 167 153 130 131 162 158 232 194 237 124 502 88 695 -94 171 -161 222
-405 138 -657 -59 -178 -84 -207 -688 -811 l-541 -540 -277 275 c-732 723
-828 822 -878 903 -74 121 -107 228 -112 367 -4 84 -1 133 11 183 49 209 217
377 433 432 80 20 239 13 316 -14z"/>
<path d="M2063 5540 c-56 -34 -58 -61 -28 -360 38 -382 62 -565 86 -645 44
-149 135 -273 340 -465 74 -69 181 -170 239 -226 58 -55 131 -125 164 -155
117 -108 146 -178 146 -351 0 -60 5 -118 10 -129 10 -18 24 -19 320 -19 306 0
309 0 321 21 17 33 5 593 -15 680 -34 147 -95 261 -190 353 -225 219 -656 615
-690 633 -23 13 -60 22 -85 23 -58 0 -111 -49 -111 -103 0 -42 20 -70 197
-275 118 -136 195 -241 209 -284 6 -21 -20 -58 -42 -58 -20 0 -522 489 -549
534 -26 45 -36 106 -60 356 -33 349 -41 388 -88 438 -50 54 -118 67 -174 32z"/>
<path d="M5654 5541 c-69 -42 -89 -94 -109 -291 -52 -516 -50 -506 -87 -556
-13 -17 -88 -93 -168 -170 -79 -76 -189 -182 -243 -234 -118 -114 -130 -121
-159 -92 -21 21 -22 22 -5 58 23 47 110 161 233 304 154 178 164 193 164 235
0 55 -52 105 -109 105 -23 0 -59 -9 -80 -19 -21 -11 -195 -168 -388 -350 -412
-388 -441 -424 -489 -621 -15 -62 -19 -129 -22 -377 -3 -210 0 -307 7 -322 11
-21 17 -21 316 -21 232 0 306 3 312 13 4 6 10 73 14 147 9 204 17 219 269 455
477 448 540 518 600 661 43 103 70 284 115 758 23 243 22 261 -19 302 -28 28
-41 34 -77 34 -26 0 -57 -8 -75 -19z"/>
<path d="M1103 2760 c-76 -14 -205 -64 -275 -106 -118 -72 -226 -202 -279
-336 -34 -86 -52 -214 -46 -323 16 -279 172 -506 417 -605 226 -92 536 -82
750 23 l65 32 22 105 c12 58 22 115 22 128 2 40 -34 22 -86 -42 -53 -67 -149
-136 -230 -166 -315 -118 -634 60 -717 401 -20 83 -21 272 -1 355 61 260 257
425 505 427 182 1 317 -77 441 -254 10 -15 20 -20 29 -14 10 6 11 32 6 119
-11 163 -10 161 -70 186 -111 46 -235 72 -371 75 -71 2 -153 0 -182 -5z"/>
<path d="M4687 2723 c-4 -3 -7 -21 -7 -38 0 -29 4 -33 40 -44 61 -18 64 -33
51 -261 -7 -107 -19 -307 -27 -445 -29 -487 -26 -474 -91 -502 -28 -11 -33
-18 -33 -48 l0 -35 171 0 170 0 -3 37 c-3 35 -6 38 -41 44 -54 9 -66 31 -67
117 0 88 49 844 56 851 7 7 8 5 79 -159 85 -196 154 -353 286 -653 87 -200
107 -237 123 -235 14 2 33 33 66 108 150 336 178 402 355 810 37 85 69 157 71
159 12 13 18 -31 29 -241 8 -128 19 -331 26 -450 14 -248 11 -268 -50 -296
-31 -15 -36 -22 -36 -52 l0 -35 203 -3 202 -2 0 38 c0 34 -3 39 -42 57 -34 16
-46 28 -55 57 -12 37 -57 633 -70 928 -7 165 -2 183 53 206 32 14 35 18 32 52
l-3 37 -134 3 c-74 1 -139 -2 -144 -7 -5 -5 -42 -85 -83 -177 -156 -352 -288
-652 -323 -733 -20 -47 -41 -86 -46 -88 -6 -1 -59 106 -119 240 -228 505 -328
723 -342 745 -14 21 -20 22 -153 22 -76 0 -141 -3 -144 -7z"/>
<path d="M2279 2326 c-98 -17 -187 -66 -254 -137 -54 -59 -55 -62 -39 -80 25
-27 40 -24 96 21 87 69 152 95 238 95 64 0 82 -4 123 -28 63 -37 86 -86 87
-179 0 -54 -3 -69 -17 -76 -10 -5 -90 -28 -178 -52 -253 -67 -341 -117 -387
-218 -46 -102 -32 -202 37 -268 118 -114 345 -105 493 19 24 21 47 37 51 37 4
0 13 -18 20 -39 7 -25 24 -49 44 -63 63 -45 229 -24 290 36 15 16 15 20 2 46
-14 26 -17 28 -49 18 -49 -15 -82 -4 -95 33 -7 20 -11 135 -11 314 0 318 -5
353 -66 423 -45 53 -113 88 -195 102 -77 12 -105 12 -190 -4z m251 -571 c0
-92 -3 -112 -24 -153 -63 -124 -210 -193 -310 -146 -81 39 -101 165 -39 242
47 58 138 109 244 137 140 36 129 43 129 -80z"/>
<path d="M3465 2331 c-70 -17 -138 -68 -186 -138 -17 -25 -35 -41 -40 -36 -4
4 -9 42 -11 83 l-3 75 -95 0 -95 0 -3 -477 c-2 -447 -1 -478 15 -485 10 -5 55
-7 101 -5 l82 4 0 302 c0 340 5 373 65 443 59 69 134 85 260 58 29 -6 32 -4
69 65 21 40 34 76 29 81 -10 10 -121 39 -143 38 -8 -1 -28 -4 -45 -8z"/>
<path d="M4014 2312 c-166 -59 -279 -195 -318 -385 -20 -95 -20 -146 -1 -239
22 -103 54 -166 118 -231 134 -138 348 -174 523 -87 69 34 184 141 184 171 0
57 -30 63 -86 18 -22 -18 -68 -45 -103 -62 -54 -25 -76 -30 -138 -30 -128 1
-210 58 -267 185 -26 57 -51 171 -42 194 4 12 63 14 335 14 376 0 341 -11 330
100 -10 99 -41 168 -109 242 -82 90 -151 121 -280 125 -71 2 -108 -2 -146 -15z
m240 -109 c60 -42 89 -102 90 -182 l1 -66 -220 -7 c-121 -3 -224 -2 -229 3
-27 25 49 200 105 241 75 56 183 60 253 11z"/>
<path d="M6646 2310 c-72 -26 -128 -63 -181 -121 -56 -61 -79 -102 -110 -192
-21 -64 -26 -97 -26 -177 0 -160 34 -262 118 -351 98 -105 198 -144 352 -137
125 5 206 40 291 127 70 71 80 96 52 123 -20 20 -20 20 -75 -25 -72 -59 -148
-87 -235 -87 -116 0 -201 56 -257 168 -28 55 -59 186 -51 208 4 11 72 14 333
16 l328 3 0 80 c-1 68 -5 90 -31 145 -43 92 -118 170 -196 205 -86 40 -224 46
-312 15z m196 -82 c84 -25 153 -134 146 -230 l-3 -43 -220 -5 c-121 -3 -224
-2 -229 2 -15 12 12 111 47 168 60 100 155 139 259 108z"/>
</g>
</svg>
