<?xml version="1.0" standalone="no"?>
<!DOCTYPE svg PUBLIC "-//W3C//DTD SVG 20010904//EN"
 "http://www.w3.org/TR/2001/REC-SVG-20010904/DTD/svg10.dtd">
<svg version="1.0" xmlns="http://www.w3.org/2000/svg"
 width="452.000000pt" height="111.000000pt" viewBox="0 0 452.000000 111.000000"
 preserveAspectRatio="xMidYMid meet">

<g transform="translate(0.000000,111.000000) scale(0.100000,-0.100000)"
fill="white" stroke="none">
<path d="M440 824 l0 -145 -140 3 -140 3 0 -142 0 -143 140 0 140 0 0 -140 0
-140 140 0 140 0 0 140 0 140 145 0 145 0 0 143 0 142 -142 0 -143 0 -3 143
-3 142 -139 0 -140 0 0 -146z"/>
<path d="M1276 745 c-21 -7 -43 -20 -48 -27 -34 -51 -42 -77 -42 -144 1 -114
41 -164 132 -164 40 0 42 2 42 29 0 24 -3 28 -23 24 -37 -7 -77 33 -84 84 -12
89 20 153 76 153 22 0 30 5 33 24 4 19 0 26 -16 30 -27 7 -24 8 -70 -9z"/>
<path d="M2532 748 c-16 -16 -15 -23 3 -42 28 -27 69 10 44 40 -14 17 -31 18
-47 2z"/>
<path d="M2060 580 l0 -170 35 0 35 0 0 70 c0 55 3 70 15 70 20 0 31 -25 40
-87 7 -52 7 -53 42 -53 34 0 34 1 28 33 -15 73 -26 105 -39 116 -12 10 -10 16
10 36 18 18 24 35 24 69 0 65 -30 86 -121 86 l-69 0 0 -170z m114 114 c30 -29
13 -94 -24 -94 -18 0 -20 7 -20 55 0 59 13 70 44 39z"/>
<path d="M2950 580 l0 -170 30 0 30 0 0 64 0 63 38 7 c69 11 110 88 83 155
-16 37 -48 51 -121 51 l-60 0 0 -170z m110 110 c11 -11 20 -28 20 -38 0 -27
-29 -62 -51 -62 -16 0 -19 7 -19 53 0 72 13 84 50 47z"/>
<path d="M1400 535 l0 -125 35 0 35 0 0 76 c0 79 11 114 35 114 10 0 15 10 15
30 0 34 -14 38 -42 13 -17 -15 -18 -15 -18 0 0 12 -9 17 -30 17 l-30 0 0 -125z"/>
<path d="M1550 578 c0 -148 31 -198 101 -163 16 9 29 11 29 5 0 -5 14 -10 30
-10 l30 0 0 125 0 125 -35 0 -34 0 -3 -97 c-3 -90 -5 -98 -23 -98 -18 0 -20 8
-23 98 l-3 97 -34 0 -35 0 0 -82z"/>
<path d="M1780 635 c0 -22 4 -25 40 -25 22 0 40 -3 40 -6 0 -4 -18 -38 -40
-76 -22 -39 -40 -81 -40 -94 0 -23 2 -24 75 -24 73 0 75 1 75 25 0 23 -4 25
-40 25 -22 0 -40 2 -40 4 0 2 18 35 40 74 22 38 40 81 40 96 0 26 -1 26 -75
26 -73 0 -75 -1 -75 -25z"/>
<path d="M2326 637 c-46 -46 -44 -168 3 -211 30 -27 88 -23 119 8 21 21 27 37
30 88 3 54 0 68 -20 98 -20 29 -30 35 -66 38 -33 3 -47 -2 -66 -21z m92 -115
c-6 -64 -21 -84 -46 -59 -22 22 -24 116 -2 141 13 17 15 17 33 -5 15 -19 18
-35 15 -77z"/>
<path d="M2528 519 c-3 -133 -5 -143 -26 -157 -12 -8 -22 -23 -22 -33 0 -27
43 -24 77 5 l28 24 3 151 4 151 -30 0 -30 0 -4 -141z"/>
<path d="M2658 653 c-20 -5 -22 -12 -9 -31 5 -9 17 -11 35 -6 28 7 56 -9 56
-32 0 -8 -9 -14 -20 -14 -83 0 -123 -105 -58 -153 24 -18 28 -18 57 -4 17 9
31 11 31 6 0 -5 14 -9 30 -9 l30 0 0 78 c0 92 -14 148 -40 162 -19 10 -79 12
-112 3z m92 -144 c0 -29 -18 -59 -35 -59 -18 0 -34 30 -27 50 12 35 62 42 62
9z"/>
<path d="M3208 646 c-23 -17 -48 -78 -48 -116 0 -42 24 -96 48 -109 12 -6 43
-11 71 -11 48 0 51 2 51 25 0 24 -3 25 -34 20 -27 -6 -39 -2 -55 14 -12 12
-21 25 -21 31 0 5 28 10 63 12 l62 3 -3 45 c-4 63 -29 94 -78 97 -21 2 -47 -3
-56 -11z m72 -47 c16 -28 5 -49 -24 -49 -32 0 -39 12 -26 44 12 31 35 34 50 5z"/>
<path d="M3390 535 l0 -125 30 0 30 0 0 73 c0 75 16 117 46 117 9 0 14 11 14
30 0 33 -19 40 -44 15 -8 -8 -17 -15 -20 -15 -3 0 -6 7 -6 15 0 9 -9 15 -25
15 l-25 0 0 -125z"/>
<path d="M3540 557 c0 -109 10 -139 49 -150 11 -2 32 2 48 10 18 9 29 11 31 4
2 -6 15 -11 28 -11 l24 0 0 125 0 125 -30 0 -30 0 0 -84 c0 -97 -5 -116 -30
-116 -25 0 -30 19 -30 116 l0 84 -30 0 -30 0 0 -103z"/>
<path d="M3791 651 c-8 -5 -11 -16 -7 -26 4 -13 13 -15 36 -10 33 7 60 -7 60
-31 0 -8 -10 -14 -22 -14 -13 0 -37 -9 -55 -19 -80 -49 -30 -177 53 -135 19
10 30 12 32 5 2 -6 16 -11 30 -11 l27 0 -5 111 c-4 95 -8 113 -24 125 -22 15
-103 19 -125 5z m89 -156 c0 -39 -21 -55 -45 -35 -29 24 -11 70 27 70 14 0 18
-8 18 -35z"/>
<path d="M4000 535 l0 -125 30 0 30 0 0 88 c0 98 9 123 37 106 15 -9 19 -28
21 -103 l3 -91 29 0 30 0 0 103 c0 119 -12 147 -62 147 -17 0 -40 -7 -50 -17
-17 -15 -18 -15 -18 0 0 11 -8 17 -25 17 l-25 0 0 -125z"/>
<path d="M4253 653 c-7 -2 -13 -14 -13 -25 0 -18 4 -19 34 -14 24 5 39 2 50
-9 24 -25 20 -32 -23 -39 -67 -10 -102 -81 -66 -133 20 -28 48 -34 82 -16 18
9 29 11 31 4 2 -6 15 -11 28 -11 24 0 24 1 24 99 0 84 -3 102 -21 125 -17 22
-28 26 -67 25 -26 0 -53 -3 -59 -6z m87 -151 c0 -51 -45 -72 -56 -27 -7 29 10
55 37 55 14 0 19 -7 19 -28z"/>
</g>
</svg>
