<?xml version="1.0" standalone="no"?>
<!DOCTYPE svg PUBLIC "-//W3C//DTD SVG 20010904//EN"
 "http://www.w3.org/TR/2001/REC-SVG-20010904/DTD/svg10.dtd">
<svg version="1.0" xmlns="http://www.w3.org/2000/svg"
 width="2000.000000pt" height="2000.000000pt" viewBox="0 0 2000.000000 2000.000000"
 preserveAspectRatio="xMidYMid meet">

<g transform="translate(0.000000,2000.000000) scale(0.100000,-0.100000)"
fill="white" stroke="none">
<path d="M9269 14840 c-93 -11 -225 -49 -242 -68 -31 -34 -161 -262 -237 -414
-150 -302 -274 -654 -354 -1003 -89 -394 -138 -776 -176 -1395 -36 -579 -60
-805 -102 -979 -23 -96 -103 -296 -155 -389 -35 -63 -35 -64 -70 -57 -75 14
-212 58 -314 101 -258 109 -445 249 -840 631 -302 292 -402 371 -584 458 -308
147 -692 169 -1034 58 -99 -32 -282 -119 -362 -174 -157 -105 -326 -272 -420
-413 -175 -264 -302 -708 -479 -1669 -106 -573 -144 -713 -246 -907 -183 -346
-449 -602 -797 -770 l-117 -56 72 -42 c313 -178 617 -206 971 -91 440 143 716
471 871 1034 42 154 77 320 146 700 107 586 231 1091 317 1295 50 117 133 262
210 364 l64 85 49 -19 c139 -55 314 -158 440 -259 36 -28 167 -151 292 -272
336 -325 465 -435 668 -569 112 -74 323 -178 434 -215 264 -88 544 -103 822
-45 416 87 711 344 868 759 18 47 47 140 64 206 72 278 94 467 137 1142 34
530 55 742 105 1034 110 647 343 1186 699 1623 l69 84 -21 20 c-80 71 -246
153 -381 187 -105 27 -267 38 -367 25z"/>
<path d="M16067 8896 c-53 -74 -97 -137 -97 -140 0 -4 35 -6 78 -6 l77 1 145
139 145 140 -125 0 -126 0 -97 -134z"/>
<path d="M13758 8690 c-147 -26 -268 -89 -374 -195 -66 -66 -89 -98 -127 -175
-68 -138 -82 -199 -82 -365 0 -119 4 -151 23 -215 75 -238 244 -414 472 -490
93 -31 280 -39 384 -15 104 23 241 93 310 158 31 29 56 58 56 64 0 6 -33 36
-74 66 l-73 56 -59 -58 c-109 -106 -239 -146 -397 -123 -216 31 -377 181 -433
402 -24 95 -15 271 19 362 55 150 141 249 270 313 173 84 383 61 512 -56 37
-35 59 -48 68 -42 8 4 44 30 80 57 l67 50 -37 39 c-58 60 -148 114 -237 143
-65 21 -105 27 -201 30 -66 1 -141 -1 -167 -6z"/>
<path d="M15941 8690 c-261 -55 -463 -232 -546 -479 -34 -100 -47 -231 -35
-341 36 -318 244 -559 546 -631 75 -18 109 -20 219 -16 143 5 200 19 309 73
182 91 312 255 368 463 29 107 29 295 0 404 -35 130 -94 230 -191 327 -93 93
-171 141 -296 180 -79 25 -295 36 -374 20z m234 -170 c139 -20 282 -114 361
-237 19 -28 46 -87 60 -130 38 -108 40 -262 5 -373 -56 -183 -176 -308 -351
-366 -76 -25 -233 -25 -318 0 -260 77 -420 363 -368 654 47 267 253 450 516
461 14 0 57 -4 95 -9z"/>
<path d="M5660 7960 l0 -710 95 0 95 0 0 310 0 310 325 0 325 0 0 85 0 85
-325 0 -325 0 0 225 0 225 350 0 350 0 0 90 0 90 -445 0 -445 0 0 -710z"/>
<path d="M6892 8163 c4 -456 6 -514 22 -563 30 -91 75 -166 138 -229 197 -197
550 -205 757 -16 69 63 113 133 148 232 l27 78 4 503 4 502 -96 0 -96 0 0
-447 c0 -265 -4 -474 -11 -513 -21 -133 -101 -245 -207 -293 -37 -16 -68 -21
-142 -21 -84 -1 -101 2 -151 27 -100 49 -176 154 -199 277 -6 30 -10 245 -10
511 l0 459 -96 0 -95 0 3 -507z"/>
<path d="M8440 7960 l0 -710 95 0 95 0 0 586 0 587 397 -587 397 -586 118 0
118 0 0 710 0 710 -90 0 -90 0 0 -586 c0 -468 -3 -584 -12 -576 -7 6 -186 269
-398 586 l-385 576 -122 0 -123 0 0 -710z"/>
<path d="M10110 7961 l0 -711 248 0 c347 0 453 15 597 87 144 72 248 173 314
307 53 106 71 187 71 317 0 283 -133 513 -360 622 -150 72 -197 79 -557 85
l-313 5 0 -712z m632 515 c140 -30 274 -127 336 -244 65 -122 84 -313 44 -439
-56 -177 -209 -305 -414 -347 -52 -11 -130 -16 -243 -16 l-165 0 0 530 0 530
188 0 c122 0 210 -5 254 -14z"/>
<path d="M12171 8643 c-35 -75 -611 -1385 -611 -1388 0 -3 49 -5 108 -5 l109
0 69 175 69 175 340 0 341 0 70 -172 69 -173 108 -3 c59 -1 107 1 107 5 0 4
-135 323 -299 708 l-299 700 -84 3 c-84 3 -85 2 -97 -25z m223 -550 c69 -171
126 -314 126 -317 0 -3 -119 -6 -265 -6 -146 0 -265 4 -265 8 0 5 59 149 130
322 72 173 130 316 130 319 0 22 35 -56 144 -326z"/>
<path d="M14780 7960 l0 -710 90 0 90 0 0 710 0 710 -90 0 -90 0 0 -710z"/>
<path d="M17220 7960 l0 -710 95 0 95 0 2 583 3 582 394 -582 394 -583 119 0
118 0 0 710 0 710 -90 0 -90 0 0 -585 c0 -322 -3 -585 -7 -585 -5 1 -183 264
-398 585 l-390 585 -122 0 -123 0 0 -710z"/>
<path d="M10385 6563 c-295 -41 -478 -258 -436 -517 14 -82 43 -138 99 -188
62 -56 116 -83 273 -136 171 -58 213 -79 254 -122 25 -26 30 -40 30 -80 0 -42
-5 -54 -34 -84 -96 -99 -304 -84 -422 30 l-35 35 -105 -117 c-57 -63 -105
-119 -107 -123 -3 -9 98 -81 156 -110 161 -82 442 -84 608 -5 81 38 168 123
207 203 31 64 32 70 32 196 0 125 -1 132 -30 184 -57 104 -151 163 -350 221
-130 39 -218 81 -241 115 -70 106 29 219 190 217 80 0 143 -20 194 -59 l35
-27 103 110 c57 60 103 112 104 117 0 15 -122 86 -183 106 -108 35 -238 48
-342 34z"/>
<path d="M5660 6528 c1 -2 94 -318 209 -703 l208 -700 133 0 134 0 155 488
c85 268 158 484 162 480 4 -5 76 -225 160 -490 l153 -483 137 0 c122 0 138 2
143 18 3 9 93 319 201 687 107 369 198 678 201 688 5 16 -7 17 -150 17 l-155
0 -9 -32 c-5 -18 -57 -224 -117 -458 -59 -234 -111 -428 -114 -432 -4 -4 -72
201 -152 455 l-146 462 -146 3 c-144 2 -146 2 -152 -20 -4 -13 -70 -216 -147
-452 -86 -265 -143 -424 -148 -415 -4 8 -56 211 -116 452 l-109 437 -167 0
c-93 0 -168 -1 -168 -2z"/>
<path d="M7920 5825 l0 -705 150 0 150 0 0 705 0 705 -150 0 -150 0 0 -705z"/>
<path d="M8640 5825 l0 -705 495 0 495 0 0 140 0 140 -340 0 -340 0 0 150 0
150 305 0 305 0 0 140 0 140 -305 0 -305 0 0 135 0 135 325 0 325 0 0 140 0
140 -480 0 -480 0 0 -705z"/>
<path d="M11280 5825 l0 -705 495 0 495 0 0 140 0 140 -340 0 -340 0 0 150 0
150 305 0 305 0 0 140 0 140 -305 0 -305 0 0 135 0 135 325 0 325 0 0 140 0
140 -480 0 -480 0 0 -705z"/>
</g>
</svg>
