<svg xmlns:inkscape="http://www.inkscape.org/namespaces/inkscape" xmlns:sodipodi="http://sodipodi.sourceforge.net/DTD/sodipodi-0.dtd" xmlns="http://www.w3.org/2000/svg" xmlns:svg="http://www.w3.org/2000/svg" version="1.1" id="layer" x="0px" y="0px" viewBox="0 0 600.09998 198" xml:space="preserve" sodipodi:docname="gob-pe-logo-vector.svg" width="600.1px" height="198px" inkscape:version="1.1.2 (b8e25be833, 2022-02-05)"><defs id="defs37"/><sodipodi:namedview id="namedview35" pagecolor="#ffffff" bordercolor="#666666" borderopacity="1.0" inkscape:pageshadow="2" inkscape:pageopacity="0.0" inkscape:pagecheckerboard="0" showgrid="false" fit-margin-top="0" fit-margin-left="0" fit-margin-right="0" fit-margin-bottom="0" inkscape:zoom="1.2714724" inkscape:cx="300.43908" inkscape:cy="99.490953" inkscape:window-width="1920" inkscape:window-height="1051" inkscape:window-x="-9" inkscape:window-y="-9" inkscape:window-maximized="1" inkscape:current-layer="layer"/>
<style type="text/css" id="style24">.st0 { fill: rgb(254, 254, 254); }
</style>
<path class="st0" d="m 260.7,112 c -8.5,0 -14.8,-5.5 -14.8,-13.8 0,-8.3 6.3,-13.8 14.8,-13.8 8.5,0 14.7,5.5 14.7,13.8 0,8.3 -6.2,13.8 -14.7,13.8 z M 276,72 v 7.2 c -4.3,-5.4 -10.7,-8 -18.6,-8 -15.5,0 -28,10.7 -28,27.1 0,16.4 12.5,27.1 28,27.1 7.3,0 13.4,-2.3 17.7,-7 v 2.4 c 0,10.1 -5,15.3 -16.5,15.3 -7.2,0 -15,-2.5 -19.8,-6.4 l -6.5,11.7 c 6.6,5.1 16.9,7.7 27.5,7.7 20.2,0 31.5,-9.6 31.5,-30.4 V 72 Z m 57.2,43.6 c -8.1,0 -14.4,-5.8 -14.4,-15.5 0,-9.7 6.3,-15.5 14.4,-15.5 8.1,0 14.3,5.8 14.3,15.5 0,9.6 -6.2,15.5 -14.3,15.5 z m 0,13.3 c 17.8,0 30.7,-12 30.7,-28.9 0,-16.9 -12.9,-28.9 -30.8,-28.9 -17.8,0 -30.8,12 -30.8,28.9 0.1,16.9 13.1,28.9 30.9,28.9 z m 71.9,-13.3 c -8.1,0 -14.3,-5.8 -14.3,-15.5 0,-9.7 6.2,-15.5 14.3,-15.5 8.1,0 14.3,5.8 14.3,15.5 0,9.6 -6.2,15.5 -14.3,15.5 z M 435.9,100 c 0,-17.6 -12.2,-28.9 -27.9,-28.9 -7,0 -12.7,2.2 -16.9,6.8 V 50.7 h -16.3 v 77.4 h 15.5 v -6.5 c 4.1,4.9 10.1,7.3 17.6,7.3 15.8,0 28,-11.3 28,-28.9 z m 6.1,18.7 c 0,-6 4.5,-10 10.1,-10 5.6,0 10.1,4 10.1,10 0,5.9 -4.5,10.2 -10.1,10.2 -5.6,0 -10.1,-4.3 -10.1,-10.2 z m 61.6,-3.1 c -8.1,0 -14.3,-5.8 -14.3,-15.5 0,-9.7 6.1,-15.5 14.3,-15.5 8.1,0 14.3,5.8 14.3,15.5 0,9.6 -6.2,15.5 -14.3,15.5 z M 534.3,100 c 0,-17.6 -12.2,-28.9 -27.9,-28.9 -7.5,0 -13.5,2.4 -17.6,7.3 v -6.5 h -15.5 v 76.3 h 16.3 V 122 c 4.2,4.6 9.9,6.8 16.9,6.8 15.6,0.1 27.8,-11.2 27.8,-28.8 z M 571,83.4 c 7.3,0 12.6,4.6 13.8,11.7 h -27.6 c 1.1,-7.2 6.4,-11.7 13.8,-11.7 z m 28.8,21.2 c 0.1,-1.4 0.3,-3.1 0.3,-4.4 0,-18 -12.7,-29.1 -29.2,-29.1 -17.1,0 -29.9,12.1 -29.9,28.9 0,16.7 12.6,28.9 32,28.9 10.1,0 17.9,-3.1 23.1,-9.1 l -8.6,-9.4 c -3.9,3.6 -8.1,5.4 -14.1,5.4 -8.5,0 -14.5,-4.3 -16,-11.3 0,0.1 42.4,0.1 42.4,0.1 z" id="path26"/>
<path class="st0" d="m 122.1,159 c 0.5,0 0.9,-0.1 0.9,-0.1 0,0 0.1,0 0.1,0 0.3,0 7.9,-0.8 12.2,-5.7 5.3,-6.1 7.6,-16.7 2.7,-21.8 -2.4,-2.5 -5.3,-3.6 -8.1,-3.1 -2.8,0.5 -5.3,2.6 -6.4,5.5 -0.2,0.6 0,1.3 0.5,1.7 0.5,0.4 1.3,0.3 1.8,-0.1 1.2,-1.1 2.4,-1.5 3.4,-1.3 0.9,0.2 1.6,1.1 2,2.3 0.4,1.1 0.1,2.6 -0.5,3.6 -0.2,0.3 -0.7,0.9 -1.4,1 -2.1,0.2 -5.2,-2.4 -8.5,-5.1 -3.2,-2.7 -6.9,-5.7 -11,-7.4 -5.6,-2.3 -21,-5.7 -31.8,2.4 0,0 -0.1,0.1 -0.1,0.1 -0.3,0.2 -6.5,4.9 -7.8,10 -2.2,4.7 -2.5,9.1 -0.9,13.2 -1.4,1.1 -2.1,2.4 -2.1,3.9 0,3.2 3.6,5.8 8.4,6.1 -0.5,0.7 -0.8,1.6 -0.8,2.5 0,3.4 4.1,6.1 9.3,6.1 3.8,0 7,-1.4 8.4,-3.5 1.4,2.1 4.6,3.5 8.4,3.5 5.2,0 9.3,-2.7 9.3,-6.1 0,-0.9 -0.3,-1.7 -0.8,-2.5 3,-0.2 5.7,-1.3 7.2,-3 0.2,0 0.5,-0.1 0.7,-0.3 1,-0.9 3.1,-1.5 4.9,-1.9 z m 7.6,-5 c -1.3,0.7 -2.7,1.2 -3.9,1.5 0,0 -0.1,0 -0.1,0 0.8,-6.7 -2.9,-13.2 -4.6,-15.6 2.3,1.8 4.4,3.3 6.5,3.8 1.3,2.2 2.6,5.6 2.1,10.3 z m -11.6,3.2 c -0.3,-0.9 -1.2,-2.7 -2.6,-5.7 -2.1,-4.7 -6.6,-10.8 -16.6,-13.9 -13.3,-4 -20.3,-2.1 -23.7,-0.2 0.2,-0.3 0.4,-0.5 0.7,-0.8 0.2,-0.1 0.3,-0.2 0.5,-0.4 1,-1.2 2.1,-2.2 3.2,-3 4.6,-1.6 11.7,-2.4 21.8,0.7 13.6,4.1 17.7,14 18.8,18 0.4,1.4 0.7,2.9 0.7,4.2 -0.1,0 -0.2,0 -0.3,0 -0.3,0 -0.5,0.2 -0.7,0.3 -0.6,0.4 -1.2,0.6 -1.8,0.8 z M 97.5,143.9 c -2,0.5 -3.7,1.4 -4.7,2.6 -1.6,-1.8 -4.6,-3 -8,-3 -1.2,0 -2.3,0.1 -3.4,0.4 3.4,-1.2 7.7,-1.5 12.1,-0.9 1.3,0.3 2.7,0.6 4,0.9 z m -12.8,2.5 c 3.7,0 6.4,1.7 6.4,3.3 0,0.8 -0.8,1.7 -2,2.3 -0.3,0.2 -0.7,0.3 -1.1,0.4 -1,0.3 -2.1,0.5 -3.3,0.5 -3.7,0 -6.4,-1.7 -6.4,-3.3 0,-1.5 2.6,-3.2 6.4,-3.2 z m 4.3,9 c 0.3,-0.1 0.7,-0.2 1.1,-0.3 0.7,-0.1 1.5,-0.2 2.2,-0.2 3.8,0 6.4,1.7 6.4,3.3 0,1.5 -2.6,3.3 -6.4,3.3 -3.8,0 -6.4,-1.7 -6.4,-3.3 0,-1.1 1.2,-2.2 3.1,-2.8 z m 5.3,-5.8 c 0,-1.5 2.6,-3.3 6.4,-3.3 0.6,0 1.2,0.1 1.8,0.2 2.6,0.4 4.5,1.7 4.5,3 v 0.1 c 0,1.1 -1.2,2.2 -3.1,2.8 -1,0.3 -2.1,0.5 -3.3,0.5 -3.6,0 -6.3,-1.7 -6.3,-3.3 z m -19.6,2.6 c -0.1,-0.6 -0.1,-1.1 -0.1,-1.7 0.2,-1.3 0.8,-2.6 1.9,-3.7 -0.7,0.8 -1,1.8 -1,2.8 0,0.9 0.3,1.7 0.8,2.4 -0.6,0.1 -1.1,0.1 -1.6,0.2 z m 34.6,-0.2 c 0,0.1 0,0.1 0.1,0.2 -0.1,0 -0.1,0 -0.2,0 0.1,-0.1 0.1,-0.2 0.1,-0.2 z m -39.4,6.2 c 0,-0.7 0.6,-1.5 1.7,-2.2 0.8,-0.5 1.8,-0.8 2.9,-1 0.6,-0.1 1.2,-0.2 1.8,-0.2 3.8,0 6.4,1.7 6.4,3.3 0,0.9 -0.8,1.5 -1.3,1.9 -1.3,0.9 -3.2,1.4 -5.2,1.4 -3.7,0 -6.3,-1.7 -6.3,-3.2 z m 14,11.8 c -3.8,0 -6.4,-1.6 -6.4,-3.1 0,-1.5 2.8,-3.1 6.4,-3.1 0,0 0,0 0.1,0 0.1,0 0,-0.1 0.1,-0.1 0,0 0.1,-0.1 0.1,-0.1 1.9,0 3.6,0.5 4.8,1.3 0.5,0.3 1.4,1 1.4,1.9 0,1.5 -2.7,3.2 -6.5,3.2 z m 16.9,0 c -3.8,0 -6.4,-1.7 -6.4,-3.3 0,-0.5 0.3,-1 0.8,-1.5 0,0 0,0 0.1,0 1.2,-1.1 3.3,-1.7 5.6,-1.7 1.2,0 2.3,0.2 3.3,0.5 1.9,0.6 3.1,1.7 3.1,2.8 -0.1,1.4 -2.7,3.2 -6.5,3.2 z m 13.7,-10.9 c -0.7,1.1 -3,2.4 -6.2,2.4 -1.1,0 -2.1,-0.1 -3,-0.4 -2,-0.6 -3.4,-1.7 -3.4,-2.9 0,-1.1 1.2,-2.1 3.1,-2.8 1,-0.3 2.2,-0.5 3.3,-0.5 0.8,0 1.5,0.1 2.2,0.2 2.5,0.5 4.3,1.8 4.3,3.1 0,0.3 -0.1,0.6 -0.3,0.9 z" id="path28"/>
<path class="st0" d="M 197.9,125.2 V 48.1 c 0,-0.9 -0.3,-1.7 -1,-2.1 -0.8,-0.4 -1.6,-0.5 -2.4,0 l -7.9,4.5 V 23.4 c 0,-0.9 -0.5,-1.7 -1.3,-2.2 -0.8,-0.4 -1.8,-0.4 -2.5,0.1 L 145,45.2 c -0.3,-0.1 -0.7,0.1 -1,0.2 -6.6,2.1 -12.7,3.1 -18.2,3.1 0,0 0,0 0,0 -18.3,0 -24.2,-11.6 -24.5,-12 -0.4,-0.8 -1.2,-1.6 -2.1,-1.6 0,0 0,0 0,0 -0.9,0 -1.7,0.7 -2.1,1.5 -0.2,0.5 -6.2,11.9 -24.5,11.9 -5.5,0 -11.6,-1 -18.2,-3.1 -0.2,-0.1 -0.3,-0.1 -0.5,-0.1 L 16,21.1 c -0.8,-0.5 -2,-0.5 -2.7,-0.1 -0.8,0.4 -1.5,1.3 -1.5,2.2 V 50.3 L 4,45.8 C 3.2,45.4 2.1,45.4 1.4,45.8 0.6,46.2 0,47.1 0,47.9 V 125 c 0,1.1 0.2,19.6 15.5,35.2 13.7,14 35.2,21.1 63.6,21.1 0.2,0 0.5,0 0.7,-0.1 10.8,3.1 16.9,5.8 16.9,14.5 0,1.3 1.1,2.3 2.4,2.3 1.3,0 2.4,-1 2.4,-2.3 0,-8.8 6.1,-11.4 17.1,-14.5 0.3,0.1 0.6,0.2 0.9,0.2 28.4,0 49.6,-7.1 63.3,-21.1 15.4,-15.5 15.1,-33.9 15.1,-35.1 z M 63.3,102.6 c 3.3,-1.2 4.5,-7.4 4.5,-7.4 0,0 4.9,3.2 8.6,1.6 0,1.5 -0.5,4 -0.5,4 0,0 -0.6,1.8 0.5,3.9 0.5,1 0.9,3.4 1.1,4.8 -1.8,-0.1 -3.6,-0.1 -5.5,-0.1 -3.1,0 -6,0.1 -8.8,0.2 0,-2.9 0.2,-4.2 0.1,-7 z m 59,-4.7 h 6.3 c -0.3,3.2 -0.3,6.6 0.6,11.3 -0.1,0 -0.2,0 -0.3,0 l -7.4,-0.6 c 1,-4.5 1.1,-7.5 0.8,-10.7 z m 51.2,10.4 c -4.3,4.5 -10.3,6.7 -17.8,6.7 -1.8,-5.2 -2.7,-10.2 -3,-14.8 l 28.9,-15.9 c 0,2.4 -0.2,15.7 -8.1,24 z M 17.3,84.2 45.7,99.9 c -0.2,4.7 -1.1,9.7 -3,15 -7.3,-0.1 -13.1,-2.3 -17.4,-6.7 -7.8,-8.1 -8,-21.5 -8,-24 z M 192.9,52.4 v 48 l -12.7,7.1 c 6.5,-10.1 6.3,-22.6 6.3,-23.8 V 56.2 Z m -11.8,0.9 -21.5,12.2 C 158.3,64.1 155,59.9 148,49 l 33.1,-21.1 c 0,0 0,25.4 0,25.4 z m -55.9,-0.2 c 5.5,0 11.7,-0.9 18.1,-2.8 6.9,10.9 10.7,15.8 12.5,17.9 -3.4,5.3 -12.4,22.8 -5.6,45.5 -3.5,-3 -10.1,-4.1 -18.1,-4.5 -1.1,-5 -1,-8.2 -0.7,-11.4 h 11.9 c 1.3,0 0.8,-2.2 0.8,-3.9 v -11 c 0,-8.4 -4.5,-8.9 -4.5,-8.9 0,0 -2.9,-0.4 -4.3,-4.4 -1.4,-3.9 -3.7,-7.1 -7.3,-7.5 -3.4,-0.4 -9,2.4 -13.4,4.8 -2.7,1.5 -2.8,3.4 -3.2,6.3 -0.9,6.9 -3.6,6.6 -3.6,6.6 -1.3,0 -2.3,1.4 -2.3,3.2 v 11 c 0,1.7 1.1,3.9 2.4,3.9 h 11.2 c 0.3,3.2 -0.3,6.4 -1.5,11.5 -7.9,0.4 -13.8,1.7 -17.9,5 V 43.8 c 4.7,4.2 12.5,9.3 25.5,9.3 z M 95.4,45.7 v 67.4 c -3.2,-2.2 -8.3,-3.1 -14.5,-3.5 -0.6,-3.4 -0.6,-11.3 0.3,-13.6 5,-1.1 5.3,-6.3 5.6,-10.7 0.2,-3.2 -1,-14.5 -1,-14.5 0.5,-0.3 2.7,-0.9 3.1,-1.1 0.7,-0.1 1.3,-0.4 1.6,-1.1 0.2,-0.8 0.5,-2 0.2,-2.5 -0.4,-0.5 -2.8,-0.7 -3.3,-1.6 -1.2,-1.2 -2.3,-2.1 -3.4,-1.9 -1.5,0.1 -3.1,0.1 -4,1.7 -1.4,-1 -2.8,0.3 -4.3,-0.1 0,0 -0.4,5.2 5.2,4.7 l 0.6,13.8 c 0,0 0.4,2.8 -3.6,2 -2.9,-0.6 -10,-3.3 -13.4,-2.3 -2.6,0.7 -5.4,2 -7,7.4 -1.6,5.4 1,3.6 1,3.6 l 2.8,-1.9 c 0,0 2,4.7 -0.3,7.3 -1.8,2.1 -1,3.7 -1,3.7 0,0 0.8,4.8 0.7,7.3 -5.2,0.5 -9.4,1.6 -12.2,3.6 6.6,-22.6 -2.4,-39.9 -5.8,-45.1 1.9,-2.2 5.5,-7.1 12.4,-17.9 6.4,1.9 12.3,2.8 17.8,2.8 10.9,-0.1 17.9,-3.9 22.5,-7.5 z M 17.3,27.9 50.3,48.8 C 43.5,59.5 40.2,63.7 38.8,65.3 l -21.5,-12 z m -5.4,28.3 v 27.4 c 0,1.2 -0.4,13.7 6.1,23.8 L 5.1,100.3 v -48 z m -5.4,76.7 31.7,17.5 c 0,0 0,0 0,0 2.7,8 8.6,14.2 17.2,20.8 2.4,1.8 4.9,3.3 7.5,4.5 C 44,173.5 29.4,167.2 19.4,157.1 11.3,148.7 7.9,139.3 6.5,132.9 Z m 92.7,54 c -3.8,-6 -11.8,-8.3 -20.1,-10.6 -7.3,-2 -14.8,-4.4 -20.9,-9.1 C 42.5,155.1 36.7,145 45.3,121 H 153 c 8.5,24 2.8,34.1 -12.9,46.2 -6.1,4.7 -13.6,6.9 -20.9,9 -8.2,2.4 -16.2,4.7 -20,10.7 z M 179.5,157 c -10.1,10.3 -24.9,16.6 -44.1,18.8 2.7,-1.2 5.2,-2.7 7.6,-4.6 8.4,-6.5 14.4,-12.7 17.1,-20.6 0.2,0 0.4,-0.1 0.6,-0.2 l 31.7,-17.5 c -1.4,6.4 -4.7,15.7 -12.9,24.1 z" id="path30"/>
<path class="st0" d="M 99,33.2 C 113.4,33 124.8,25.8 124.8,16.6 124.8,7.4 113.5,0.1 99,0 84.5,0.2 73.2,7.4 73.2,16.6 73.2,25.8 84.5,33 99,33.2 Z M 99,6.3 c 7.5,0 12.8,2.9 12.8,6.7 0,2.7 -3,5.2 -7.6,6.2 -4.4,1.4 -2.8,3 -5,4.5 0,0 -0.1,0 -0.1,0 0,0 0,0 0,0 -2.3,-1.5 -0.6,-3 -5,-4.5 C 89.5,18.2 86.4,15.7 86.4,13 86.3,9.2 91.7,6.3 99,6.3 Z" id="path32"/>
</svg>